<svg width="44" height="44" viewBox="0 0 44 44" fill="none" xmlns="http://www.w3.org/2000/svg">
<path d="M42.23 4.0459H37.6783C36.8438 4.0459 36.161 4.72866 36.161 5.56314C36.161 6.39762 36.8438 7.08038 37.6783 7.08038H40.7128V40.9655H3.28741V7.08038H7.33336C8.16784 7.08038 8.8506 6.39762 8.8506 5.56314C8.8506 4.72866 8.16784 4.0459 7.33336 4.0459H1.77017C0.935688 4.0459 0.25293 4.72866 0.25293 5.56314V42.4827C0.25293 43.3172 0.935688 43.9999 1.77017 43.9999H42.2299C43.0644 43.9999 43.7472 43.3172 43.7472 42.4827V5.56314C43.7472 4.72866 43.0645 4.0459 42.23 4.0459Z" fill="#F9F4E5"/>
<path d="M24.0232 4.0459H19.7243C18.8898 4.0459 18.207 4.72866 18.207 5.56314C18.207 6.39762 18.8898 7.08038 19.7243 7.08038H24.0232C24.8576 7.08038 25.5404 6.39762 25.5404 5.56314C25.5404 4.72866 24.8576 4.0459 24.0232 4.0459Z" fill="#F9F4E5"/>
<path d="M12.8969 31.3563H9.3566C8.52211 31.3563 7.83936 32.0391 7.83936 32.8736V35.4023C7.83936 36.2368 8.52211 36.9195 9.3566 36.9195H12.8969C13.7313 36.9195 14.4141 36.2368 14.4141 35.4023V32.8736C14.4141 32.0391 13.7313 31.3563 12.8969 31.3563Z" fill="#F9F4E5"/>
<path d="M23.7698 31.3563H19.9767C19.1422 31.3563 18.4595 32.0391 18.4595 32.8736V35.4023C18.4595 36.2368 19.1422 36.9195 19.9767 36.9195H23.7698C24.6043 36.9195 25.2871 36.2368 25.2871 35.4023V32.8736C25.2871 32.0391 24.6043 31.3563 23.7698 31.3563Z" fill="#F9F4E5"/>
<path d="M14.4141 24.5287C14.4141 23.6942 13.7313 23.0115 12.8969 23.0115H9.3566C8.52211 23.0115 7.83936 23.6942 7.83936 24.5287V27.0574C7.83936 27.8919 8.52211 28.5747 9.3566 28.5747H12.8969C13.7313 28.5747 14.4141 27.8919 14.4141 27.0574V24.5287Z" fill="#F9F4E5"/>
<path d="M25.2871 24.5287C25.2871 23.6942 24.6043 23.0115 23.7698 23.0115H19.9767C19.1422 23.0115 18.4595 23.6942 18.4595 24.5287V27.0574C18.4595 27.8919 19.1422 28.5747 19.9767 28.5747H23.7698C24.6043 28.5747 25.2871 27.8919 25.2871 27.0574V24.5287Z" fill="#F9F4E5"/>
<path d="M34.391 23.0115H30.8507C30.0163 23.0115 29.3335 23.6942 29.3335 24.5287V27.0574C29.3335 27.8919 30.0163 28.5747 30.8507 28.5747H34.391C35.2255 28.5747 35.9082 27.8919 35.9082 27.0574V24.5287C35.9082 23.6942 35.2255 23.0115 34.391 23.0115Z" fill="#F9F4E5"/>
<path d="M7.83936 15.9311V18.4598C7.83936 19.2942 8.52211 19.977 9.3566 19.977H12.8969C13.7313 19.977 14.4141 19.2942 14.4141 18.4598V15.9311C14.4141 15.0966 13.7313 14.4138 12.8969 14.4138H9.3566C8.52211 14.4138 7.83936 15.0966 7.83936 15.9311Z" fill="#F9F4E5"/>
<path d="M25.2871 15.9311C25.2871 15.0966 24.6043 14.4138 23.7698 14.4138H19.9767C19.1422 14.4138 18.4595 15.0966 18.4595 15.9311V18.4598C18.4595 19.2942 19.1422 19.977 19.9767 19.977H23.7698C24.6043 19.977 25.2871 19.2942 25.2871 18.4598V15.9311Z" fill="#F9F4E5"/>
<path d="M35.9082 15.9311C35.9082 15.0966 35.2255 14.4138 34.391 14.4138H30.8507C30.0163 14.4138 29.3335 15.0966 29.3335 15.9311V18.4598C29.3335 19.2942 30.0163 19.977 30.8507 19.977H34.391C35.2255 19.977 35.9082 19.2942 35.9082 18.4598V15.9311Z" fill="#F9F4E5"/>
<path d="M13.908 10.1149C14.7425 10.1149 15.4253 9.43215 15.4253 8.59767V1.51724C15.4253 0.682759 14.7425 0 13.908 0H12.3908C11.5563 0 10.8735 0.682759 10.8735 1.51724V8.59767C10.8735 9.43215 11.5563 10.1149 12.3908 10.1149H13.908Z" fill="#F9F4E5"/>
<path d="M31.3563 0H29.839C29.0045 0 28.3218 0.682759 28.3218 1.51724V8.59767C28.3218 9.43215 29.0045 10.1149 29.839 10.1149H31.3563C32.1907 10.1149 32.8735 9.43215 32.8735 8.59767V1.51724C32.8735 0.682759 32.1907 0 31.3563 0Z" fill="#F9F4E5"/>
</svg>
