<svg width="34" height="43" viewBox="0 0 34 43" fill="none" xmlns="http://www.w3.org/2000/svg">
<path d="M26.5415 34.5803C26.5415 34.2875 26.6578 34.0066 26.8649 33.7996C27.072 33.5925 27.3528 33.4762 27.6457 33.4762C27.9385 33.4762 28.2194 33.5925 28.4264 33.7996C28.6335 34.0066 28.7498 34.2875 28.7498 34.5803V39.2708C28.7498 40.1494 28.4008 40.9919 27.7796 41.6131C27.1584 42.2343 26.3159 42.5833 25.4373 42.5833H3.354C2.47547 42.5833 1.63293 42.2343 1.01171 41.6131C0.390498 40.9919 0.0415039 40.1494 0.0415039 39.2708V3.9375C0.0415039 3.05897 0.390498 2.21642 1.01171 1.59521C1.63293 0.973995 2.47547 0.625 3.354 0.625H25.4373C26.3159 0.625 27.1584 0.973995 27.7796 1.59521C28.4008 2.21642 28.7498 3.05897 28.7498 3.9375V8.63242C28.7498 8.92526 28.6335 9.20611 28.4264 9.41318C28.2194 9.62025 27.9385 9.73658 27.6457 9.73658C27.3528 9.73658 27.072 9.62025 26.8649 9.41318C26.6578 9.20611 26.5415 8.92526 26.5415 8.63242V3.9375C26.5415 3.64466 26.4252 3.36381 26.2181 3.15674C26.011 2.94967 25.7302 2.83333 25.4373 2.83333H3.354C3.06116 2.83333 2.78031 2.94967 2.57324 3.15674C2.36617 3.36381 2.24984 3.64466 2.24984 3.9375V39.2708C2.24984 39.5637 2.36617 39.8445 2.57324 40.0516C2.78031 40.2587 3.06116 40.375 3.354 40.375H25.4373C25.7302 40.375 26.011 40.2587 26.2181 40.0516C26.4252 39.8445 26.5415 39.5637 26.5415 39.2708V34.5803ZM29.4742 19.3958L23.6309 13.5526C23.4236 13.3455 23.307 13.0646 23.3068 12.7716C23.3066 12.4786 23.4228 12.1975 23.6298 11.9902C23.8369 11.7829 24.1178 11.6663 24.4108 11.6661C24.7038 11.6658 24.9849 11.782 25.1922 11.9891L33.0009 19.7978C33.2079 20.0048 33.3242 20.2856 33.3242 20.5784C33.3242 20.8712 33.2079 21.152 33.0009 21.359L25.1922 29.1677C24.984 29.3688 24.705 29.4801 24.4155 29.4776C24.126 29.4751 23.8491 29.359 23.6444 29.1543C23.4396 28.9495 23.3235 28.6726 23.321 28.3831C23.3185 28.0936 23.4298 27.8147 23.6309 27.6064L29.631 21.6042H8.87484C8.58199 21.6042 8.30114 21.4878 8.09407 21.2808C7.887 21.0737 7.77067 20.7928 7.77067 20.5C7.77067 20.2072 7.887 19.9263 8.09407 19.7192C8.30114 19.5122 8.58199 19.3958 8.87484 19.3958H29.4742Z" fill="#F9F4E5"/>
</svg>
