<svg width="390" height="532" viewBox="0 0 390 532" fill="none" xmlns="http://www.w3.org/2000/svg">
<path d="M241.168 152.828C241.666 148.713 242.559 144.343 242.044 140.201C242 139.908 241.863 139.637 241.654 139.427C241.445 139.217 241.174 139.079 240.881 139.034C240.588 138.989 240.288 139.038 240.025 139.176C239.762 139.313 239.55 139.53 239.42 139.797C237.841 143.661 237.544 148.088 236.946 152.196C236.548 154.911 240.834 155.553 241.168 152.828Z" fill="white"/>
<path d="M240.864 142.269C240.77 139.607 236.571 140.049 236.724 142.74C236.95 147.978 236.159 153.21 234.397 158.147C234.355 158.27 234.356 158.404 234.401 158.527C234.445 158.649 234.529 158.753 234.64 158.821C234.751 158.889 234.882 158.918 235.011 158.902C235.141 158.886 235.261 158.827 235.352 158.734C237.32 156.495 238.822 153.885 239.768 151.057C240.715 148.23 241.087 145.242 240.864 142.269Z" fill="white"/>
<path d="M241.174 152.216C241.293 152.128 241.393 152.016 241.468 151.888C241.733 151.58 241.926 151.216 242.032 150.823C242.352 150.274 242.561 149.666 242.646 149.036C242.72 148.456 242.568 147.871 242.221 147.401C241.874 146.932 241.359 146.614 240.784 146.514L240.66 146.476C240.447 146.382 240.215 146.338 239.983 146.348C239.75 146.359 239.523 146.423 239.32 146.535C239.116 146.648 238.941 146.806 238.809 146.997C238.676 147.188 238.59 147.408 238.556 147.638C238.556 147.638 238.556 147.638 238.537 147.7C238.427 147.91 238.357 148.139 238.331 148.375C238.292 148.76 238.311 149.148 238.387 149.527C238.367 149.678 238.355 149.83 238.353 149.982C238.313 150.393 238.38 150.808 238.546 151.187C238.712 151.566 238.973 151.896 239.303 152.145C239.585 152.346 239.92 152.458 240.266 152.469C240.612 152.48 240.954 152.389 241.248 152.206L241.174 152.216Z" fill="white"/>
<path d="M242.879 146.269C242.842 146.201 242.801 146.136 242.757 146.073C242.768 145.972 242.761 145.869 242.735 145.771C242.634 145.143 242.295 144.579 241.789 144.195C241.282 143.81 240.647 143.635 240.015 143.706C239.384 143.777 238.803 144.089 238.395 144.576C237.987 145.064 237.782 145.689 237.822 146.324C237.822 146.832 237.857 147.339 237.926 147.842C237.844 148.646 237.954 149.458 238.247 150.211C238.434 150.703 238.785 151.115 239.242 151.378C239.313 151.663 239.452 151.927 239.645 152.149C239.838 152.371 240.081 152.544 240.354 152.654C240.627 152.764 240.922 152.808 241.215 152.782C241.509 152.756 241.792 152.661 242.041 152.505C244.324 151.194 243.827 148.287 242.879 146.269Z" fill="white"/>
<path d="M102.248 290.238C101.926 289.818 101.48 289.509 100.974 289.354C100.468 289.2 99.9264 289.207 99.4246 289.375C97.4391 290.053 95.7887 291.466 94.8127 293.323C94.5601 293.634 94.3984 294.009 94.3457 294.406C94.286 294.565 94.2362 294.728 94.1966 294.893C94.1258 295.184 94.1142 295.487 94.1624 295.782C94.2105 296.078 94.3174 296.36 94.4769 296.614C94.6618 296.929 94.9232 297.192 95.237 297.38C95.5508 297.567 95.9068 297.672 96.2721 297.685C96.715 297.777 97.1739 297.757 97.6068 297.625C98.0397 297.494 98.4326 297.256 98.7494 296.933C99.3277 296.303 99.7487 295.559 100.337 294.932C100.924 294.306 101.596 293.819 102.113 293.205C102.455 292.793 102.654 292.28 102.678 291.744C102.703 291.209 102.552 290.68 102.249 290.238L102.248 290.238Z" fill="white"/>
<path d="M100.127 317.705C100.304 317.124 100.482 316.542 100.715 315.966C101.023 315.842 101.297 315.646 101.514 315.395C101.731 315.143 101.885 314.843 101.963 314.52C102.283 313.29 102.564 312.071 102.812 310.853C103.06 309.635 103.358 308.51 103.636 307.34C103.694 307.097 103.7 306.843 103.651 306.597C103.603 306.351 103.503 306.119 103.357 305.915C103.566 305.231 103.717 304.515 103.888 303.808C104.335 302.344 104.783 300.88 105.158 299.394C105.218 299.184 105.234 298.964 105.205 298.748C105.175 298.532 105.1 298.324 104.985 298.139L105.303 297.1C105.716 295.569 106.011 294.008 106.185 292.432C106.246 291.974 106.328 291.522 106.378 291.061C106.393 290.886 106.381 290.71 106.344 290.539C106.369 289.899 106.363 289.251 106.347 288.599C106.82 287.053 107.175 285.447 107.599 283.908C108.024 282.369 105.763 281.633 104.811 282.67C103.29 284.339 101.829 286.037 100.421 287.82C100.286 288.002 100.189 288.21 100.136 288.43C100.083 288.651 100.075 288.88 100.113 289.103C100.151 289.327 100.233 289.54 100.355 289.731C100.478 289.922 100.637 290.086 100.825 290.214C100.905 290.528 101.087 290.807 101.342 291.008C101.122 290.987 100.9 291.011 100.69 291.079C100.48 291.147 100.285 291.258 100.12 291.404C99.9537 291.55 99.8196 291.729 99.7254 291.929C99.6312 292.128 99.5791 292.346 99.5721 292.566C99.5278 292.971 99.4624 293.37 99.4135 293.79C98.9965 293.824 98.5982 293.977 98.2665 294.232C97.9347 294.487 97.6836 294.832 97.5436 295.227C97.2463 295.167 96.9385 295.187 96.6514 295.284C96.3644 295.382 96.1084 295.554 95.9095 295.783C95.5014 295.923 95.1468 296.186 94.8952 296.536C94.6436 296.886 94.5076 297.306 94.5059 297.737C94.5352 299.379 94.4617 301.02 94.2861 302.653C94.0511 304.386 93.7646 306.103 93.42 307.826C93.351 308.187 93.4089 308.562 93.584 308.886L92.9271 311.035C92.8915 311.2 92.882 311.369 92.8989 311.537C92.7626 311.73 92.6588 311.944 92.5914 312.17L92.1528 313.605C92.0732 313.853 92.0502 314.116 92.0852 314.374C92.1202 314.632 92.2125 314.879 92.3554 315.097C92.287 315.531 92.3671 315.976 92.5825 316.359C92.5813 316.723 92.6932 317.079 92.903 317.377C93.1128 317.675 93.41 317.9 93.7534 318.022C93.9393 318.254 94.1694 318.448 94.4304 318.591C94.5835 319.012 94.8743 319.369 95.2555 319.604C95.3237 321.645 98.5638 322.669 99.266 320.444L99.9969 318.053C100.052 317.943 100.096 317.827 100.126 317.707L100.127 317.705Z" fill="white"/>
<path d="M91.3309 348.704C91.4245 347.868 91.3387 347.022 91.0795 346.222C91.0675 346.168 91.0481 346.117 91.0219 346.068C91.035 345.618 91.0471 345.168 91.0529 344.705C91.0522 344.481 91.0168 344.259 90.9481 344.045L90.999 343.879C91.0401 343.782 91.071 343.681 91.0911 343.578C91.1778 342.367 91.2773 341.149 91.3778 339.931C91.3776 339.809 91.3653 339.688 91.3412 339.569C91.3643 339.381 91.3652 339.191 91.3438 339.003C91.7448 336.772 92.2966 334.57 92.9954 332.414C93.0981 332.101 93.1282 331.768 93.0834 331.442C93.6205 330.687 94.224 330.013 94.8203 329.181C95.3151 328.918 95.7418 328.544 96.0665 328.088C96.3912 327.631 96.6049 327.105 96.6906 326.552C97.1514 326.078 97.5761 325.57 97.9612 325.033C98.1986 324.942 98.4157 324.804 98.5998 324.628C98.7839 324.453 98.9316 324.243 99.0342 324.01C99.4236 323.353 99.7117 322.641 99.8889 321.899C99.9139 321.796 99.9447 321.696 99.9809 321.597C100.181 321.53 100.362 321.415 100.508 321.262C100.654 321.109 100.76 320.922 100.818 320.719L101.827 317.418C101.954 317.071 101.971 316.693 101.878 316.336C101.784 315.979 101.584 315.658 101.303 315.418C101.318 315.071 101.355 314.73 101.353 314.367C101.379 312.944 99.3361 312.536 99.0952 314.029C99.0313 314.61 98.9043 315.173 98.7981 315.743C98.7279 315.82 98.6643 315.903 98.6082 315.991C98.5732 316.152 98.4962 316.301 98.3852 316.423C98.0499 316.418 97.7226 316.526 97.4552 316.728C97.1877 316.93 96.9951 317.216 96.908 317.54L95.8672 320.944C95.0155 322.649 93.7082 324.084 92.0901 325.09C91.7967 325.269 91.5637 325.532 91.4214 325.845C91.2792 326.157 91.2342 326.506 91.2923 326.844C90.5592 327.446 89.8835 328.115 89.2741 328.842C88.9331 329.369 88.6668 329.94 88.4828 330.54C88.2304 330.817 88.0657 331.161 88.0095 331.531C87.9832 331.599 87.962 331.668 87.946 331.739C87.4325 333.918 87.1511 336.145 87.1066 338.384C87.1027 338.675 87.153 338.963 87.255 339.236L87.3001 339.533C87.2836 339.664 87.2814 339.796 87.2933 339.928C87.0992 341.9 86.8945 343.87 86.6961 345.852L86.6614 345.966L86.5622 347.07C86.5561 347.225 86.5657 347.38 86.5911 347.533C86.0597 348.642 85.52 349.737 84.9888 350.845C82.6333 351.941 84.0746 355.73 86.4466 354.627C87.3895 354.245 88.2432 353.672 88.9542 352.944C89.6651 352.216 90.2179 351.349 90.5778 350.398C90.8205 350.188 91.0139 349.928 91.1441 349.635C91.2743 349.342 91.3381 349.024 91.3309 348.704Z" fill="white"/>
<path d="M91.4079 348.784C91.2462 348.424 90.9527 348.14 90.5879 347.991C90.2232 347.841 89.8149 347.836 89.447 347.978C89.0792 348.121 88.7797 348.398 88.6105 348.754C88.4412 349.111 88.4151 349.518 88.5372 349.893C88.0022 350.278 87.4942 350.699 87.0171 351.154C86.8075 351.25 86.6303 351.404 86.5067 351.599C86.0932 351.949 85.7607 352.257 85.6775 352.344C85.0492 353.09 84.5131 353.91 84.0805 354.784C84.1199 355.842 84.1499 356.896 84.1576 357.952C84.3312 358.067 84.5283 358.141 84.7344 358.169C84.9406 358.198 85.1504 358.18 85.3486 358.116C85.5467 358.052 85.728 357.945 85.8791 357.802C86.0301 357.659 86.1473 357.484 86.2216 357.289C86.7903 355.874 88.1497 355.087 88.7042 353.735C89.1867 353.295 89.6923 352.881 90.2188 352.496C91.3193 351.56 92.088 350.274 91.4079 348.784Z" fill="white"/>
<path d="M96.0247 324.181C95.7603 324.452 95.5567 324.777 95.4274 325.133C95.4228 325.166 95.413 325.198 95.3982 325.228C95.3353 325.363 95.2915 325.507 95.268 325.654C95.1335 325.865 94.9749 326.06 94.7954 326.235C94.6169 326.369 94.4685 326.539 94.3602 326.734C94.2518 326.929 94.1857 327.145 94.1665 327.367C94.1472 327.589 94.1751 327.813 94.2482 328.024C94.3214 328.234 94.4382 328.427 94.5911 328.59C94.744 328.752 94.9294 328.881 95.1354 328.967C95.3413 329.052 95.563 329.094 95.7861 329.088C96.0091 329.082 96.2285 329.03 96.4298 328.933C96.631 328.837 96.8096 328.7 96.9539 328.529C97.718 327.739 98.2928 326.785 98.635 325.74C98.7373 325.568 98.8049 325.379 98.8338 325.181C98.8627 324.984 98.8525 324.782 98.8036 324.589C98.705 324.198 98.4551 323.862 98.1089 323.656C97.7628 323.449 97.3486 323.388 96.9577 323.487C96.5668 323.586 96.2311 323.836 96.0244 324.182L96.0247 324.181Z" fill="white"/>
<path d="M88.1476 350.353C88.4016 350.243 88.6218 350.068 88.7857 349.845C88.9497 349.622 89.0514 349.359 89.0806 349.084C89.3311 346.595 89.5568 344.105 89.7069 341.613C89.7984 341.517 89.8714 341.405 89.9223 341.282C90.1549 340.706 90.3946 340.144 90.625 339.579C90.6918 339.442 90.7262 339.291 90.7258 339.138C90.7253 338.985 90.69 338.835 90.6223 338.698C90.5547 338.561 90.4564 338.441 90.3354 338.348C90.2143 338.255 90.0735 338.191 89.9239 338.161C89.897 336.949 89.8941 335.734 89.9087 334.496C89.9067 334.28 89.9184 334.057 89.9168 333.84L89.8547 333.821C89.7895 333.484 89.6206 333.175 89.3715 332.938C89.1224 332.701 88.8056 332.548 88.4652 332.5C88.5386 332.349 88.5879 332.188 88.6114 332.022C88.6812 330.012 88.5936 327.476 89.4525 325.56C90.3114 323.643 92.2118 322.691 93.5199 321.128C95.6135 318.624 95.9904 315.459 96.2237 312.284C96.4459 309.775 92.5572 309.166 92.3394 311.698C91.9036 316.65 89.2767 318.525 86.7421 322.245C85.8421 323.646 85.2529 325.223 85.0144 326.87C84.7497 327.058 84.5359 327.308 84.3922 327.599C84.2485 327.89 84.1794 328.212 84.1913 328.536L84.2884 333.787C84.0602 334.124 83.9385 334.522 83.9393 334.929C83.9396 337.267 84.0317 339.6 84.1827 341.928C83.6503 344.691 83.4483 347.508 83.5811 350.319C83.5851 350.595 83.6592 350.866 83.7962 351.107C83.9332 351.347 84.1286 351.549 84.3646 351.693C85.1351 353.144 87.8445 353.007 87.9669 351.047C88.094 350.838 88.1569 350.597 88.1476 350.353Z" fill="white"/>
<path d="M92.7563 328.595C93.8114 327.464 94.7515 326.23 95.5626 324.913C95.7962 324.56 95.925 324.148 95.9338 323.725C95.9427 323.302 95.8312 322.885 95.6126 322.523C95.6194 322.483 95.6352 322.446 95.6588 322.414C95.6824 322.382 95.7133 322.356 95.7487 322.337C96.0401 321.988 96.1913 321.543 96.173 321.088C96.1546 320.634 95.968 320.203 95.6494 319.878C96.1642 318.566 96.5972 317.224 96.946 315.859C97.3651 314.229 94.5803 313.388 94.0771 314.982C93.4376 317.04 92.6214 319.039 91.6378 320.956C89.4929 323.183 86.7595 326.07 87.5463 328.955C87.3088 329.36 87.0375 329.73 86.7967 330.145C85.6447 332.131 88.3673 333.658 89.9505 332.71C90.5971 332.333 91.0989 331.75 91.3759 331.055C91.4591 330.877 91.5167 330.688 91.5472 330.494C91.9126 329.838 92.3163 329.204 92.7563 328.595Z" fill="white"/>
<path d="M157.157 237.345C163.147 231.935 169.438 226.878 175.332 221.335C176.453 220.27 174.738 218.713 173.558 219.453C165.737 224.394 158.785 230.646 152 236.913C148.967 239.732 145.992 242.605 143.077 245.535C140.893 247.739 138.026 249.916 137.079 252.975C135.981 256.566 136.009 260.819 135.419 264.532C134.69 269.179 133.837 273.81 132.938 278.438C131.123 287.678 128.945 296.842 127.127 306.094C126.699 308.312 130.002 308.721 130.559 306.598C134.91 289.881 137.165 273.001 140.33 256.08C141.113 251.881 144.46 249.476 147.422 246.545C150.597 243.409 153.842 240.342 157.157 237.345Z" fill="white"/>
<path d="M139.985 293.07L143.774 285.5C143.939 285.208 144.016 284.875 143.995 284.54C143.975 284.205 143.858 283.884 143.659 283.614C145.065 279.98 146.473 276.351 147.884 272.727C148.006 272.432 148.056 272.112 148.028 271.794C148.001 271.477 147.897 271.17 147.727 270.901C149.516 266.113 151.291 261.323 153.051 256.53C153.165 256.243 153.213 255.935 153.191 255.627C153.17 255.32 153.078 255.021 152.925 254.754C154.175 251.481 155.408 248.203 156.623 244.921C157.938 242.066 159.264 239.213 160.581 236.358C161.75 233.832 157.972 232.234 156.685 234.622C155.93 236.014 155.179 237.397 154.417 238.775C154.108 238.818 153.818 238.95 153.585 239.156C149.376 243.023 145.335 247.043 141.464 251.217C141.213 251.371 140.999 251.579 140.839 251.827C140.678 252.075 140.576 252.355 140.538 252.647C140.416 253.416 140.288 254.172 140.153 254.935C138.145 259.647 136.871 264.64 136.375 269.738C136.349 270.045 136.392 270.354 136.5 270.642C136.609 270.931 136.78 271.191 137.001 271.405L136.1 274.353C135.988 274.71 135.954 275.087 136.001 275.459C135.56 277.242 135.094 279.018 134.673 280.804C134.6 281.081 134.599 281.371 134.669 281.649C134.739 281.926 134.878 282.181 135.073 282.39C134.75 283.79 134.451 285.207 134.105 286.635C133.988 287.056 134.038 287.506 134.244 287.891C133.49 291.247 132.867 294.621 132.348 298.027C131.951 299.324 131.551 300.632 131.079 301.918C130.894 301.838 130.694 301.796 130.493 301.797C130.291 301.797 130.092 301.839 129.907 301.92C129.723 302.001 129.557 302.12 129.42 302.268C129.283 302.416 129.179 302.59 129.112 302.781L126.056 312.777C125.974 313.107 125.976 313.453 126.061 313.782C126.147 314.112 126.313 314.415 126.546 314.663C126.403 315.13 126.33 315.63 126.198 316.1C125.88 317.139 127.676 317.688 128.066 316.672C128.233 316.09 128.43 315.518 128.658 314.958C128.785 314.862 128.897 314.747 128.989 314.617C131.171 311.147 132.922 307.425 134.206 303.533C134.54 303.436 134.842 303.249 135.078 302.993C135.314 302.738 135.476 302.422 135.546 302.081C136.18 299.451 136.846 296.803 137.478 294.202C137.961 294.375 138.493 294.355 138.961 294.143C139.428 293.932 139.796 293.547 139.985 293.07Z" fill="white"/>
<path d="M158.185 284.435C159.285 282.251 155.813 280.724 154.717 282.898C154.304 283.712 153.807 284.481 153.233 285.191C152.954 285.29 152.7 285.449 152.489 285.656C151.534 286.589 150.578 287.524 149.613 288.454C149.486 288.587 149.382 288.739 149.305 288.905C148.929 289.278 148.554 289.651 148.161 290.008C147.884 290.267 147.687 290.601 147.595 290.969C145.736 292.671 143.861 294.459 142.031 296.249C142.006 296.332 141.855 296.343 141.77 296.419L138.498 299.698C138.482 299.547 138.447 299.399 138.394 299.257C138.854 298.457 139.322 297.668 139.744 296.847C139.921 296.479 139.962 296.062 139.861 295.667C139.759 295.272 139.521 294.926 139.189 294.69C139.553 294.132 139.895 293.567 140.267 293.022C140.406 292.826 140.503 292.603 140.551 292.367C140.6 292.131 140.598 291.887 140.547 291.652C140.497 291.417 140.398 291.194 140.256 290.999C140.115 290.804 139.935 290.641 139.727 290.519C140.673 288.538 141.654 286.567 142.669 284.608C143.363 283.231 141.274 282.377 140.519 283.656C138.326 287.377 136.302 291.174 134.322 295.018C134.227 295.187 134.171 295.374 134.16 295.567C134.148 295.76 134.18 295.953 134.253 296.132C133.93 296.669 133.586 297.199 133.273 297.739C133.068 298.081 133.006 298.49 133.1 298.878C133.194 299.265 133.436 299.601 133.775 299.811C133.233 300.655 132.691 301.5 132.1 302.318C131.937 302.538 131.825 302.793 131.774 303.062C131.724 303.332 131.735 303.609 131.806 303.874L130.301 306.126C130.139 306.356 130.029 306.62 129.981 306.897C129.932 307.175 129.945 307.459 130.02 307.731C129.67 308.192 129.32 308.652 128.963 309.133C127.501 311.059 130.327 313.399 131.866 311.519C131.969 311.404 132.073 311.288 132.166 311.169C132.457 311.069 132.721 310.906 132.94 310.69L138.939 304.659C139.047 304.597 139.148 304.526 139.242 304.445C140.896 302.748 142.544 301.073 144.253 299.416C144.63 299.43 145 299.31 145.298 299.077C149.012 296.172 152.389 292.861 155.365 289.204C155.604 288.918 155.741 288.561 155.755 288.188C156.721 287.045 157.537 285.784 158.185 284.435Z" fill="white"/>
<path d="M159.085 283.722C159.945 282.509 159.545 280.026 159.437 278.858C158.846 271.175 157.007 263.939 162.537 257.582C166.188 253.731 168.889 249.08 170.423 244C172.353 237.428 172.888 230.554 174.977 224.02C175.685 221.705 172.236 220.139 171.488 222.476C167.818 233.998 168.15 245.791 159.611 255.166C156.602 258.342 154.869 262.516 154.744 266.89C154.658 268.692 155.455 281.046 156.948 281.571C156.696 281.722 156.497 281.946 156.377 282.214C156.365 282.271 156.348 282.326 156.326 282.38C156.194 282.755 156.21 283.166 156.372 283.529C156.195 284.451 156.003 285.369 155.761 286.27C155.449 287.514 157.56 288.148 157.94 286.937C158.307 285.822 158.686 284.769 159.085 283.722Z" fill="white"/>
<path d="M168.014 249.21C167.889 249.049 167.707 248.942 167.506 248.91C167.305 248.878 167.099 248.924 166.931 249.038C166.088 249.925 165.374 250.926 164.808 252.01C164.47 252.587 164.015 253.086 163.472 253.476C162.928 253.865 162.309 254.136 161.654 254.27C159.584 254.841 160.791 258.058 162.866 257.399C163.785 257.164 164.649 256.749 165.408 256.178C166.167 255.608 166.805 254.893 167.287 254.074C168.047 252.627 168.936 250.684 168.014 249.21Z" fill="white"/>
<path d="M157.245 283.431L158.694 278.914C158.882 278.392 158.863 277.817 158.64 277.309C158.574 277.027 158.444 276.765 158.259 276.543C158.075 276.32 157.842 276.143 157.579 276.025C157.315 275.907 157.028 275.851 156.739 275.862C156.45 275.874 156.168 275.951 155.914 276.089C156.031 272.81 156.046 269.534 155.886 266.263C155.914 265.726 155.955 265.148 155.964 264.641C156.014 264.293 156.075 263.936 156.136 263.558C156.275 263.461 156.402 263.348 156.511 263.219C160.495 257.957 164.041 252.379 167.116 246.54C167.264 246.38 167.391 246.201 167.494 246.009C168.368 244.172 169.074 242.26 169.603 240.297L169.622 240.234L169.787 239.694C169.911 239.293 169.881 238.859 169.704 238.478C169.527 238.097 169.215 237.795 168.829 237.631C169.195 237.175 169.54 236.714 169.91 236.248C170.11 235.976 170.244 235.662 170.301 235.33C170.359 234.997 170.338 234.656 170.24 234.334C170.143 234.011 169.972 233.715 169.74 233.47C169.509 233.225 169.224 233.037 168.907 232.922L170.508 230.358L171.778 229.1C173.434 227.393 170.734 224.494 168.892 226.027L168.58 226.306C168.252 226.43 167.956 226.625 167.713 226.878L166.391 228.232C163.973 230.388 161.649 232.605 159.39 234.98C159.204 235.177 159.066 235.415 158.987 235.674C158.907 235.933 158.889 236.208 158.933 236.475C158.9 236.669 158.905 236.867 158.947 237.059C158.857 237.242 158.797 237.438 158.769 237.64C157.519 239.256 156.288 240.919 155.077 242.628C154.607 242.502 154.109 242.537 153.662 242.728C153.215 242.918 152.845 243.253 152.611 243.679C150.916 246.623 149.211 249.563 147.517 252.508C147.35 252.771 147.26 253.076 147.257 253.388C147.254 253.7 147.338 254.006 147.5 254.273C145.688 258.122 143.938 261.992 142.312 265.933C142.128 266.36 142.085 266.836 142.191 267.289C142.297 267.743 142.546 268.15 142.902 268.451L143.938 269.165C144.364 269.471 144.886 269.612 145.408 269.563C145.93 269.514 146.416 269.278 146.778 268.898C146.531 270.15 146.281 271.414 146.024 272.663C145.594 272.595 145.153 272.676 144.775 272.892C144.397 273.109 144.104 273.449 143.946 273.854L134.11 298.339C133.964 298.717 133.927 299.129 134.003 299.528C134.079 299.926 134.266 300.295 134.541 300.593C134.816 300.891 135.169 301.106 135.56 301.214C135.952 301.321 136.365 301.317 136.754 301.202C137.158 301.466 137.65 301.559 138.123 301.461C138.595 301.363 139.01 301.082 139.275 300.679C139.702 300.061 140.088 299.429 140.491 298.781C142.402 297.095 144.219 295.459 145.987 293.65C146.964 292.871 147.929 292.088 148.903 291.318C149.264 291.457 149.662 291.474 150.034 291.367C150.407 291.26 150.734 291.033 150.967 290.723C151.963 289.393 152.925 288.03 153.81 286.655C153.866 286.583 153.925 286.513 153.988 286.448C154.19 286.525 154.406 286.56 154.622 286.553C154.838 286.545 155.051 286.494 155.247 286.403C155.443 286.311 155.619 286.182 155.764 286.021C155.909 285.861 156.021 285.673 156.092 285.468C156.229 285.022 156.424 284.605 156.591 284.18C156.886 284.008 157.114 283.742 157.24 283.424L157.245 283.431Z" fill="white"/>
<path d="M56.3103 387.474L56.6272 387.662C57.0143 387.836 57.4449 387.889 57.8628 387.815C58.2807 387.74 58.6663 387.541 58.969 387.243L191.752 256.136C202.398 245.634 211.372 235.881 213.536 222.899C214.422 217.586 213.994 212.233 213.589 207.021C213.19 202.052 212.773 196.919 213.618 192.076C215.757 179.587 225.679 169.85 236.544 160.153L241.494 155.73C248.532 253.859 233.386 352.312 197.182 443.788L196.174 446.304C191.877 457.055 187.437 468.161 186.573 479.974C185.728 491.463 189.003 506.664 200.674 514.931C202.195 515.999 203.814 516.92 205.509 517.681C206.604 518.165 207.727 518.584 208.871 518.936C222.511 523.106 237.612 517.075 246.481 509.129C258.405 498.417 264.725 482.869 269.845 467.681C294.319 394.575 302.261 311.375 294.159 213.293C292.429 192.958 289.87 169.109 283.244 146.303L282.977 145.393C281.707 140.998 279.383 132.943 276.233 124.718L282.888 118.805C296.13 106.959 312.576 92.2414 318.696 72.7051C320.067 68.221 320.27 61.8366 317.578 57.5511C316.914 56.4571 316.014 55.5257 314.943 54.8253C313.873 54.1248 312.659 53.6731 311.391 53.5033C310.114 53.246 308.796 53.2682 307.529 53.5684C306.261 53.8687 305.074 54.4398 304.048 55.2426C300.381 58.344 300.155 64.2676 299.982 69.4704C300.001 71.4046 299.825 73.3358 299.457 75.2347C297.646 81.6392 290.281 87.9455 283.727 93.5689C281.357 95.6028 279.115 97.516 277.3 99.3336L268.388 108.175C262.313 98.1229 255.894 93.9469 249.308 95.7365C244.07 97.1675 239.753 102.191 238.309 108.548C237.105 113.855 237.757 119.15 238.394 124.306L238.437 124.648C238.915 128.629 239.355 132.611 239.756 136.595L48.2765 326.63C39.9179 334.925 31.7564 343.985 31.8123 355.421C31.8513 369.316 43.5903 379.033 56.3103 387.474ZM240.323 141.991C240.597 144.81 240.866 147.639 241.074 150.45L233.709 157.017C222.267 167.23 211.798 177.56 209.432 191.387C208.5 196.777 208.946 202.146 209.366 207.383C209.757 212.304 210.166 217.389 209.392 222.147C207.441 233.877 198.912 243.086 188.817 253.063L161.652 279.842C161.638 277.687 161.493 275.535 161.217 273.398C161.116 272.392 161.009 271.371 160.921 270.357C160.671 267.465 160.654 263.805 162.462 261.01C163.241 259.936 164.168 258.977 165.215 258.162C166.553 257.131 167.704 255.879 168.618 254.458C170.971 250.472 172.148 245.322 173.163 240.854C173.371 239.952 173.575 239.062 173.78 238.205C175.152 232.495 176.252 226.407 177.257 219.631C187.07 214.21 195.973 213.356 204.441 217.035C204.773 217.184 205.14 217.242 205.503 217.203C205.865 217.165 206.211 217.031 206.505 216.815C206.808 216.581 207.046 216.275 207.199 215.925C207.352 215.575 207.414 215.192 207.379 214.812C207.336 214.452 207.197 214.111 206.978 213.824C206.758 213.536 206.466 213.312 206.131 213.175C183.079 203.188 162.252 223.857 147.06 238.951C145.041 240.948 143.115 242.869 141.269 244.637L136.649 249.093C136.42 249.226 136.227 249.412 136.086 249.636C115.219 269.624 94.8148 289.958 75.3002 310.018C63.2602 322.409 51.0048 335.279 38.884 348.27C38.6956 348.462 38.5483 348.69 38.4513 348.941C38.3543 349.192 38.3094 349.46 38.3197 349.729C38.3299 349.998 38.3949 350.262 38.5107 350.505C38.6265 350.748 38.7908 350.964 38.9933 351.141C39.4098 351.537 39.9662 351.752 40.5406 351.738C41.115 351.724 41.6605 351.483 42.0576 351.068C58.483 333.468 75.4374 315.804 92.5136 298.524C92.2154 302.89 91.5769 307.226 90.6037 311.492C89.8113 314.939 89.2841 317.218 86.7154 319.384C84.9538 320.878 83.8508 321.913 83.2301 324.323C82.1519 328.534 82.1786 333.184 82.1846 337.693C82.1903 339.158 82.2021 340.604 82.1656 341.989C82.0329 347.249 82.0097 352.633 82.0957 358.403L57.1835 383.01C46.1177 375.507 36.067 366.952 36.0143 355.392C35.9768 345.596 43.5226 337.257 51.2323 329.637L240.323 141.991ZM158.725 233.952C163.257 229.59 168.141 225.609 173.328 222.049C172.53 227.22 171.635 231.929 170.596 236.367C169.82 239.685 168.932 242.998 167.965 246.199L167.838 246.614C166.839 249.883 165.889 252.987 163.358 255.178C159.173 258.734 157.424 262.274 157.347 267.415C157.348 269.587 157.496 271.755 157.791 273.907C158.168 277.427 158.565 280.658 157.677 283.895L128.251 312.945C131.548 292.807 135.187 272.547 139.105 252.643C145.553 246.352 152.075 240.116 158.671 233.937L158.725 233.952ZM86.2475 330.385C86.379 327.021 86.4906 324.319 89.0252 322.155C90.9018 320.775 92.2905 318.834 92.9898 316.613C93.6626 314.444 94.208 312.239 94.6236 310.007C95.6386 304.942 96.212 299.8 96.3374 294.636C99.3587 291.595 102.383 288.558 105.411 285.526C104.176 296.767 102.166 307.909 99.393 318.873C98.7295 322.23 96.9995 325.284 94.4606 327.58C92.7403 328.95 91.5326 330.86 91.0327 333.002C89.7698 338.654 89.7426 344.831 89.8631 350.714L85.6876 354.829C85.6429 349.482 85.6904 344.535 85.8392 339.817C85.9176 337.087 86.0301 334.355 86.1767 331.623L86.2475 330.385ZM95.2844 332.013C95.9436 331.067 96.718 330.205 97.5897 329.449C98.6368 328.545 99.561 327.507 100.338 326.362C101.717 323.947 102.664 321.31 103.139 318.57C105.757 306.816 108.396 294.286 109.377 281.647C112.557 278.488 115.732 275.338 118.939 272.199C124.118 267.09 129.332 262.01 134.578 256.958C130.698 277.077 127.077 297.308 123.895 317.186L93.4628 347.223C93.4874 345.063 93.593 343.087 93.7103 341.215C93.7488 340.682 93.7789 340.102 93.8102 339.52C93.8882 336.888 94.0369 333.915 95.2326 332.008L95.2844 332.013ZM303.53 76.3347C304.006 74.1099 304.236 71.8393 304.215 69.5642C304.406 65.2305 304.547 60.3129 306.77 58.4244C307.351 58.0179 308.011 57.7388 308.707 57.6054C309.403 57.472 310.119 57.4873 310.809 57.6504C311.223 57.7094 311.626 57.8325 312.002 58.0153C312.826 58.3871 313.521 58.9946 313.999 59.7613C315.651 62.3777 315.928 67.2631 314.644 71.3889C308.905 89.8163 292.918 104.099 280.052 115.591L274.54 120.511C273.226 117.385 271.839 114.497 270.542 111.945L280.303 102.296C282.038 100.556 284.23 98.6864 286.56 96.6801C293.465 90.7016 301.361 83.9565 303.532 76.3343L303.53 76.3347ZM264.051 131.584C263.658 132.803 262.891 133.867 261.859 134.626C260.827 135.384 259.582 135.799 258.301 135.81C257.021 135.822 255.769 135.43 254.723 134.69C253.678 133.95 252.892 132.9 252.476 131.689C252.076 130.465 252.048 129.151 252.395 127.912C252.741 126.672 253.447 125.563 254.423 124.725C255.133 124.082 255.998 123.636 256.932 123.43C257.867 123.224 258.84 123.266 259.753 123.551C261.391 124.051 262.766 125.177 263.58 126.683C264.394 128.19 264.582 129.956 264.103 131.6L264.051 131.584ZM282.484 189.727C277.198 185.467 276.19 174.398 275.537 167.082C275.418 165.911 275.331 164.748 275.222 163.807C274.546 157.926 273.983 151.897 273.536 145.933L273.489 145.306C273.223 142.466 273.062 139.648 272.953 136.8L272.906 135.764C272.805 133.905 272.639 131.142 273.4 129.286C275.982 136.398 277.868 142.923 278.926 146.557L279.19 147.474C283.216 161.881 286.072 176.59 287.729 191.457C285.827 191.538 283.961 190.919 282.483 189.718L282.484 189.727ZM271.865 125.336C268.468 128.316 269.069 134.481 269.379 138.628C269.44 139.282 269.493 139.888 269.531 140.433C270.039 148.536 270.782 156.944 271.752 165.356C271.848 166.158 271.939 167.048 272.076 168.009C272.871 175.8 274.04 187.577 280.436 192.653C282.635 194.382 285.4 195.227 288.189 195.024C288.716 199.611 289.2 204.414 289.675 210.063C288.899 209.414 288.203 208.674 287.601 207.861C286.655 206.496 285.4 205.373 283.938 204.585L282.901 204.267C281.716 203.938 280.505 203.712 279.282 203.592C277.329 203.335 275.483 203.1 274.022 201.984C271.173 199.796 269.273 195.243 268.12 192.517C266.751 189.211 265.722 185.774 265.048 182.259C263.336 173.788 263.315 164.908 263.297 156.355C263.274 150.673 263.258 144.789 262.756 139.005C264.015 138.397 265.137 137.54 266.056 136.487C266.975 135.433 267.671 134.205 268.103 132.875C268.784 130.68 268.735 128.324 267.964 126.159C267.194 123.993 265.742 122.136 263.828 120.865C262.59 120.034 261.187 119.481 259.715 119.244C259.236 115.761 258.752 112.78 258.07 109.775L257.889 109.027C257.125 106.442 256.753 103.757 256.784 101.062C260.513 103.457 264.351 108.721 268.201 116.732C269.379 119.251 270.636 122.156 271.866 125.335L271.865 125.336ZM256.07 119.303C254.47 119.666 252.98 120.405 251.722 121.458C250.091 122.858 248.912 124.711 248.335 126.781C247.758 128.852 247.809 131.047 248.48 133.089C248.972 134.437 249.733 135.671 250.717 136.716C251.701 137.76 252.888 138.593 254.205 139.164C255.514 139.757 256.935 140.06 258.372 140.052C258.646 140.045 258.934 140.03 259.224 139.999C259.675 145.47 259.697 151.074 259.72 156.506C259.762 166.837 259.81 177.52 262.646 187.775C264.469 194.246 267.605 203.184 273.768 205.931C275.298 206.539 276.909 206.917 278.55 207.052C280.841 207.355 282.807 207.605 284.255 209.215C284.672 209.671 285.045 210.16 285.408 210.645C286.502 212.115 287.728 213.749 289.909 214.076C290.109 216.578 290.312 219.069 290.495 221.553C284.387 224.339 283.702 233.562 283.293 239.169L283.227 239.977C282.986 243.145 282.911 246.395 282.836 249.539C282.664 256.819 282.495 264.35 280.188 271.34C278.89 275.466 276.664 279.239 273.679 282.369C271.937 284.178 269.871 285.645 267.59 286.693C267.093 286.905 266.59 287.103 266.091 287.29C264.989 287.672 263.927 288.161 262.92 288.75C259.11 291.115 258.645 295.309 258.274 299.009L258.221 299.481C257.751 303.878 257.47 308.434 257.393 313.325C256.695 313.566 256.031 313.898 255.418 314.311C250.859 317.309 249.767 322.957 249.093 328.018C248.35 333.716 247.768 339.519 247.25 345.184C246.954 348.204 246.643 351.253 246.31 354.308C241.368 356.997 239.604 363.245 238.427 367.437C237.208 372.144 236.264 376.918 235.599 381.735C235.176 384.421 234.739 387.147 234.224 389.76C232.745 397.171 230.346 404.369 227.083 411.185C225.07 415.428 222.644 417.91 219.451 418.995C216.711 419.915 213.731 419.811 211.062 418.701C215.4 406.224 219.399 393.486 222.962 380.807C231.507 380.105 234.234 371.484 236.064 365.721C238.802 356.565 240.948 347.242 242.486 337.81L242.688 336.738C244.541 327.362 245.918 317.9 246.816 308.386C247.165 303.787 247.39 299.639 246.473 295.512C245.643 292.209 244.145 289.113 242.07 286.413C242.764 280.95 243.409 275.314 243.997 269.602C253.964 270.821 265.906 270.817 272.854 261.902C281.672 250.581 279.445 232.397 278.56 227.086L278.5 226.727C278.224 224.323 277.564 221.979 276.544 219.784C275.216 217.287 273.125 216.117 271.014 214.956L270.18 214.492C265.031 211.591 261.097 206.937 259.093 201.377C257.63 197.253 257.456 192.738 257.29 188.341C257.211 186.261 257.131 184.183 256.918 182.132C256.423 177.44 255.556 172.703 254.7 168.151L253.721 162.778C253.224 159.914 252.909 156.968 252.569 153.851C251.484 143.735 250.354 133.288 242.831 125.744L242.582 123.659C242.006 118.863 241.398 113.91 242.419 109.342C243.524 104.504 246.66 100.704 250.411 99.6854C251.331 99.4283 252.297 99.3749 253.24 99.5289C252.935 102.556 253.21 105.614 254.049 108.539C254.866 112.069 255.526 115.586 256.052 119.287L256.07 119.303ZM243.612 505.956L243.155 506.372C243.986 504.838 244.975 503.394 246.106 502.065C247.16 500.801 248.105 499.449 248.931 498.025C250.774 494.255 252.268 490.323 253.395 486.28L254.032 484.196C255.464 479.696 257.023 474.895 258.953 470.328L259.432 469.17C260.706 466.029 262.645 461.298 265.49 460.159C266.226 459.87 267.036 459.827 267.798 460.037C267.163 462.113 266.466 464.17 265.779 466.23C260.869 480.881 254.801 495.79 243.59 505.875L243.612 505.956ZM259.826 460.608C256.38 465.828 254.326 471.99 252.343 477.956L250.642 483.52C249.443 487.976 247.819 492.306 245.792 496.452C245.016 497.765 244.137 499.015 243.162 500.188C241.047 502.878 238.68 505.9 238.887 509.608C236.748 510.999 234.485 512.188 232.126 513.159C231.7 512.473 231.26 511.759 230.784 511.126C229.536 509.517 228.597 507.69 228.015 505.739C227.293 502.715 228.214 499.444 229.164 496.488C233.829 496.13 238.185 494.013 241.349 490.566C245.053 486.692 247.283 481.847 249.425 476.804C253.009 468.384 256.312 459.806 259.272 451.279C266.148 452.03 270.457 445.437 273.119 440.292C273.634 439.314 274.118 438.327 274.581 437.254C272.84 443.805 270.973 450.283 268.997 456.636C265.464 455.754 262.074 457.192 259.827 460.603L259.826 460.608ZM197.275 482.057C197.209 478.563 196.915 471.505 192.676 468.96C193.126 467.19 193.663 465.357 194.29 463.381C194.74 462.965 195.334 462.74 195.946 462.753C196.532 462.759 197.111 462.884 197.648 463.12C198.184 463.356 198.668 463.698 199.068 464.126C200.041 465.202 200.743 466.495 201.116 467.896C201.888 470.818 202.231 473.836 202.134 476.856L202.136 477.334C202.151 482.776 202.155 488.406 203.551 493.941C204.783 499.345 207.406 504.333 211.159 508.412C212.915 510.283 214.956 511.864 217.206 513.098C218.012 513.538 218.88 513.894 219.766 514.267C220.796 514.651 221.79 515.126 222.737 515.687C215.868 516.86 208.811 515.337 203.038 511.434C198.602 508.229 195.222 503.773 193.331 498.637C196.223 495.264 197.58 489.71 197.265 482.054L197.275 482.057ZM248.827 153.296C249.093 155.806 249.365 158.296 249.744 160.693C250.172 163.378 250.668 166.061 251.167 168.733C251.734 171.744 252.3 174.754 252.754 177.799C253.254 181.175 253.444 184.638 253.634 187.988C253.747 190.293 253.879 192.535 254.101 194.816C254.462 199.516 255.964 204.057 258.477 208.045C260.99 212.034 264.437 215.349 268.521 217.703L269.489 218.249C270.842 218.832 272.037 219.726 272.978 220.859C273.732 222.181 274.239 223.628 274.476 225.131C276.315 233.635 276.161 242.449 274.027 250.884C272.092 258.239 268.028 263.079 262.067 265.24C256.346 267.282 250.225 266.848 244.295 266.081C244.54 263.523 244.769 260.967 244.982 258.414C254.948 256.331 257.866 244.192 257.292 234.187C256.906 228.665 255.737 223.225 253.821 218.031C253.008 215.716 251.955 213.443 250.935 211.247C249.483 208.335 248.275 205.307 247.324 202.195C247.294 178.937 246.03 155.696 243.536 132.572C247.223 138.595 248.03 146.049 248.827 153.296ZM248.581 214.32C250.632 218.977 252.151 223.85 253.106 228.848C254.315 235.585 254.328 245.418 250.421 250.922C249.197 252.703 247.411 254.024 245.348 254.671C246.481 240.364 247.141 225.89 247.34 211.558C247.757 212.469 248.179 213.391 248.575 214.319L248.581 214.32ZM285.683 269.647C284.98 278.183 283.782 286.409 282.536 294.79C281.34 302.711 280.257 311.119 281.127 319.41C281.962 327.259 285.742 332.533 291.299 333.768C291.201 335.252 291.09 336.731 290.964 338.206C286.354 339.918 284.778 347.007 283.925 350.912L283.772 351.411C282.346 357.785 281.477 364.262 280.612 370.58L280.017 374.939C279.004 382.188 277.85 390.38 276.286 398.281C275.442 402.449 274.589 406.093 273.663 409.42C272.591 413.269 271.388 416.863 268.822 418.756C275.798 390.073 278.53 362.055 276.933 335.426C276.82 333.249 276.597 331.078 276.265 328.923C276.916 325.538 277.16 322.088 276.99 318.645C276.839 315.716 276.631 311.725 274.714 309.085C274.038 308.07 273.016 307.334 271.839 307.014C270.662 306.694 269.409 306.811 268.312 307.343C265.903 308.468 264.916 310.765 264.401 313.117C263.283 312.802 262.127 312.647 260.966 312.657C261.059 308.27 261.346 303.99 261.777 299.909L261.875 298.883C262.084 296.677 262.305 294.247 263.614 292.752C264.684 291.731 265.99 290.992 267.416 290.6C267.951 290.411 268.476 290.192 268.989 289.947C275.106 287.276 280.061 281.777 282.927 274.504C286.045 266.569 286.263 258.021 286.468 249.741L286.492 248.738C286.525 244.277 286.83 239.821 287.404 235.396L287.44 235.094C287.895 232.009 288.589 227.624 290.861 225.538C291.317 232.215 291.724 239.014 292.042 245.774C291.958 246.02 291.928 246.282 291.955 246.542C292.339 249.963 290.891 253.027 289.377 256.162C289.057 256.836 288.735 257.521 288.441 258.146C286.848 261.789 285.914 265.684 285.683 269.653L285.683 269.647ZM291.351 330.118C284.677 328.077 284.183 318.256 284.419 310.837C284.781 304.109 285.563 297.411 286.76 290.781L287.233 287.788C287.768 284.365 288.071 280.848 288.367 277.469C288.719 273.498 289.085 269.403 289.782 265.416C290.366 262.874 291.267 260.415 292.463 258.097C293.293 283.039 292.956 307.236 291.469 330.142L291.351 330.118ZM205.693 482.258C205.658 481.113 205.682 479.882 205.661 478.65C205.737 473.429 205.825 467.531 202.667 462.899C201.557 461.266 199.927 460.055 198.042 459.465C197.277 459.229 196.479 459.119 195.679 459.14C197.045 455.301 198.551 451.528 200.011 447.866L201.019 445.351C202.796 440.875 204.619 436.099 206.607 430.783C212.26 433.011 211.693 440.692 210.419 449.725C210.181 451.468 209.953 453.067 209.866 454.391C209.821 455.058 209.756 455.754 209.695 456.473C209.221 462.071 208.58 469.663 213.297 473.908C213.037 475.592 212.93 477.295 212.978 478.998C213.198 485.07 216.338 492.511 222.893 495.389C223.696 495.743 224.531 496.021 225.386 496.22C224.491 499.147 223.615 502.568 224.263 506.019C224.895 508.567 226.052 510.955 227.662 513.029L228.564 514.384C228.064 514.537 227.565 514.679 227.061 514.81C225.643 512.878 223.599 512.026 221.614 511.204L220.611 510.772C217.181 509.237 214.207 506.842 211.976 503.819C207.921 498.436 205.877 491.384 205.693 482.258ZM239.267 380.833L239.546 379.141C240.174 374.785 241.133 370.483 242.414 366.272C243.083 363.805 244.18 361.474 245.654 359.385C244.814 366.291 243.926 371.796 242.831 376.933C239.016 394.874 234.227 412.594 228.485 430.015L226.926 434.816C224.475 442.959 221.515 450.94 218.065 458.712L217.838 459.27C216.459 462.571 215.267 465.947 214.27 469.382C212.777 466.655 213 462.807 213.188 459.369L213.263 457.973C213.429 454.199 213.858 450.38 214.281 446.696L214.555 444.165C215.487 435.586 213.067 429.579 207.863 427.443C208.517 425.646 209.157 423.843 209.785 422.049C212.105 422.981 214.616 423.335 217.104 423.079C219.591 422.823 221.978 421.965 224.059 420.579C229.563 416.871 232.02 409.392 234.053 403.408L234.67 401.576C236.983 394.805 238.145 387.698 239.267 380.834L239.267 380.833ZM272.457 318.791C271.199 317.049 269.585 315.593 267.724 314.521C267.811 313.754 268.009 313.005 268.313 312.296C268.482 311.895 268.753 311.545 269.099 311.28C269.444 311.016 269.853 310.846 270.284 310.787C270.654 310.78 271.02 310.874 271.341 311.058C271.663 311.243 271.928 311.51 272.11 311.834C272.894 312.981 273.091 315.232 273.239 316.867L273.295 317.61C273.388 318.518 273.435 319.431 273.435 320.344C273.138 319.809 272.811 319.292 272.455 318.796L272.457 318.791ZM272.67 335.692C275.295 379.525 266.133 426.461 245.423 475.191C243.438 479.862 241.391 484.333 238.199 487.682C235.519 490.472 231.025 493.104 226.454 492.127C220.724 490.898 217.471 484.386 217.25 478.871C217.043 472.792 219.449 466.74 221.784 460.882L221.934 460.394C225.582 452.655 228.294 444.268 230.923 436.151L232.479 431.36C238.28 413.776 243.116 395.888 246.965 377.776C249.236 367.12 250.332 356.161 251.399 345.489C251.948 339.982 252.534 334.167 253.268 328.536C253.817 324.401 254.65 319.821 257.686 317.798C258.548 317.294 259.51 316.987 260.504 316.898C261.499 316.81 262.5 316.942 263.438 317.286C265.654 317.981 267.589 319.368 268.959 321.244C271.843 325.221 272.345 330.562 272.671 335.69L272.67 335.692ZM274.405 426.095C273.983 427.849 273.54 429.667 272.974 431.333C269.286 442.248 265.159 447.661 260.384 447.79C263.132 439.618 265.587 431.367 267.679 423.244C273.554 421.442 275.622 415.604 277.105 410.232C279.153 402.563 280.748 394.781 281.881 386.925C282.502 382.892 283.07 378.843 283.638 374.794C284.168 371.007 284.712 367.175 285.279 363.446L285.371 362.805C285.914 359.282 286.43 355.626 287.259 352.134L287.421 351.604C287.9 349.48 288.838 345.226 290.579 342.949C288.609 366.566 285.167 390.037 280.274 413.225C276.641 416.715 275.515 421.475 274.402 426.083L274.405 426.095ZM243.27 298.088C243.647 301.792 243.609 305.527 243.158 309.223C242.445 317.37 241.013 325.593 239.572 333.836C238.004 342.676 236.591 350.086 234.61 357.494C234.394 358.199 234.224 358.977 234.032 359.791C232.376 366.47 230.149 375.426 223.895 377.021C231.554 349.11 237.373 320.727 241.313 292.053C242.3 293.94 242.963 295.98 243.272 298.087L243.27 298.088ZM191.954 494.188C190.817 489.649 190.409 484.957 190.744 480.289C190.924 477.812 191.268 475.35 191.772 472.919C193.288 474.903 193.968 479.174 193.673 485.078C193.643 488.192 193.061 491.277 191.954 494.188Z" fill="white"/>
</svg>
