<svg width="47" height="45" viewBox="0 0 47 45" fill="none" xmlns="http://www.w3.org/2000/svg">
<path d="M23.4235 25.1969C30.2607 25.1969 35.8064 19.6512 35.8064 12.814C35.8064 5.97675 30.2607 0.468994 23.4235 0.468994C16.5863 0.468994 11.0405 6.01473 11.0405 12.814C11.0405 19.6132 16.5863 25.1969 23.4235 25.1969V25.1969ZM23.4235 3.69768C28.4374 3.69768 32.5398 7.8 32.5398 12.814C32.5398 17.8279 28.4374 21.9302 23.4235 21.9302C18.4095 21.9302 14.3072 17.8279 14.3072 12.814C14.3072 7.8 18.4095 3.69768 23.4235 3.69768Z" fill="#F9F4E5"/>
<path d="M2.00052 44.5311H44.999C45.9106 44.5311 46.6323 43.8093 46.6323 42.8977C46.6323 34.3512 39.6811 27.3621 31.0966 27.3621H15.9028C7.35634 27.3621 0.367188 34.3132 0.367188 42.8977C0.367187 43.8093 1.08889 44.5311 2.00052 44.5311V44.5311ZM15.9028 30.6287H31.0966C37.3261 30.6287 42.454 35.2628 43.2517 41.2644H3.74781C4.54548 35.3008 9.67339 30.6287 15.9028 30.6287Z" fill="#F9F4E5"/>
</svg>
