<svg width="60" height="116" viewBox="0 0 60 116" fill="none" xmlns="http://www.w3.org/2000/svg">
<path d="M28.4907 58.7912C29.9407 59.6792 30.3197 60.0691 30.9057 58.5781C31.9417 55.9321 32.3257 53.0441 33.4447 50.3931C35.2917 46.0311 37.4277 41.8052 42.2277 40.2782C44.9087 39.4202 47.7737 39.2301 50.4657 38.4021C56.1417 36.6561 58.7517 31.3021 59.1897 25.7191C59.2967 24.3191 58.6337 22.1031 58.1007 21.6951C57.5677 21.2871 52.2947 19.8781 50.3717 20.2451C47.7349 20.5947 45.0681 20.6581 42.4177 20.4342C41.0737 20.2212 40.1867 19.0341 39.3637 18.9431C38.5407 18.8521 36.6767 19.3751 36.4517 20.4281C36.2267 21.4811 36.5227 21.7721 37.2917 22.5821C38.0607 23.3921 40.2917 24.7821 40.4347 27.1751C40.5777 29.5681 40.2037 34.1941 39.3457 36.2481C38.4877 38.3021 35.3687 42.8941 34.1557 44.7761C33.5143 45.8097 32.9677 46.8991 32.5227 48.0311C31.8219 49.2584 31.0191 50.4245 30.1227 51.5171C28.7617 53.3461 27.1637 55.3281 24.9087 55.6601C25.9128 56.9029 27.1248 57.9623 28.4907 58.7912ZM57.4087 22.3911C57.7103 23.223 57.9245 24.0839 58.0477 24.9601V24.6291L58.1597 25.8131C58.1499 25.5271 58.1181 25.2423 58.0647 24.9611C58.1477 26.2271 58.1947 27.4941 58.1947 28.7611C58.1718 27.7663 58.0569 26.7758 57.8517 25.8021C57.6415 24.8219 57.1952 23.9078 56.5517 23.1391C56.8952 22.965 57.1897 22.7079 57.4087 22.3911ZM49.3297 21.4741C50.4621 21.2295 51.6373 21.2673 52.7517 21.5842C53.8661 21.9011 54.8854 22.4873 55.7197 23.2912C59.9927 27.8012 55.7197 35.8321 49.8017 35.9741C45.8247 36.0691 43.3507 34.2741 42.7017 32.9381C42.0527 31.6021 42.3017 27.7951 43.1097 26.4281C43.9177 25.0611 46.9327 21.9081 49.3297 21.4771V21.4741ZM37.8187 21.8111C37.5187 21.2191 38.7477 21.1012 38.7477 21.1012C39.4484 21.5477 40.126 22.0296 40.7777 22.5451C41.7127 23.2911 44.2577 22.5451 44.2777 22.5451C43.0937 22.8941 42.5497 24.8182 42.2067 25.8122C41.6685 27.5481 41.2978 29.3315 41.0997 31.1381C41.1647 30.0961 41.2357 29.0552 41.3067 28.0072C41.534 26.7261 41.2968 25.4059 40.6377 24.2841C39.9437 23.3051 38.3567 22.8791 37.8197 21.8141L37.8187 21.8111ZM41.0977 33.3642C41.0977 35.7912 45.6977 37.3942 47.5307 37.5072C44.507 37.9189 41.5856 38.8861 38.9137 40.3601C40.2297 38.253 40.9799 35.842 41.0917 33.3601L41.0977 33.3642Z" fill="#D38600"/>
<path d="M0.414761 21.524C0.0029207 24.0611 0.220294 26.6606 1.04777 29.094C1.67477 30.87 1.79977 31.609 4.82377 31.988C6.06077 32.142 7.23276 32.462 8.45176 32.55C9.23876 32.769 11.8198 33.621 12.8788 35.639C13.9702 37.6422 14.4921 39.9062 14.3878 42.1851C14.2638 43.9611 14.2638 46.7191 15.1458 47.9731C16.0278 49.2271 17.5128 49.749 18.5458 54.016C19.5788 58.2831 20.3218 64.216 21.6948 68.116C22.6569 70.753 23.7927 73.3233 25.0948 75.8101C25.2248 76.064 30.5218 74.41 30.9418 74.147C31.2034 73.9799 31.419 73.7499 31.5688 73.478C32.4628 71.921 31.6518 69.6961 31.1428 68.1511C30.5508 66.3281 30.2908 64.132 29.1188 62.576C27.6098 60.564 24.3368 59.4271 22.8278 57.7941C20.6765 54.9925 18.8592 51.9496 17.4128 48.727C16.4068 46.336 15.0458 39.033 14.5188 35.884C14.215 34.011 14.1712 32.105 14.3888 30.22C14.1765 30.7795 13.8398 31.2833 13.404 31.6934C12.9683 32.1035 12.445 32.4091 11.8738 32.587C10.754 32.7864 9.60602 32.7644 8.49476 32.522C10.2708 32.64 12.1048 32.262 14.4128 30.196C14.4128 30.196 15.0048 28.7521 15.5198 27.4031C15.3532 28.1204 15.2346 28.848 15.1648 29.581C15.0487 30.694 14.9893 31.8121 14.9868 32.931C14.9961 34.2541 15.0772 35.5758 15.2298 36.8901C15.3838 38.2901 15.5608 39.743 15.8218 41.264C16.0987 42.8237 16.4623 44.3668 16.9108 45.886C17.3766 47.4587 17.9359 49.0021 18.5858 50.5081C18.9288 51.2661 19.2958 52.0081 19.7218 52.7451C20.1478 53.4821 20.5858 54.1361 21.0598 54.805C21.9777 56.1406 23.0727 57.3452 24.3148 58.386C24.9201 58.8769 25.5722 59.3069 26.2618 59.67C26.9128 60.025 27.5338 60.351 28.0908 60.712C28.6197 61.0373 29.0883 61.4518 29.4758 61.9371C29.5595 62.0446 29.6366 62.1572 29.7068 62.274L29.8188 62.4871L29.8718 62.5941V62.647C29.9838 62.919 30.0908 63.2091 30.1918 63.4871C30.5828 64.6291 30.9198 65.6871 31.2098 66.6301C31.4998 67.5731 31.7538 68.406 31.9678 69.074C32.3818 70.435 32.6248 71.2111 32.6248 71.2111L32.5248 70.6191C32.4598 70.2401 32.3648 69.69 32.2248 68.991C32.0848 68.292 31.9248 67.446 31.7158 66.482C31.5068 65.5181 31.2658 64.4221 30.9408 63.2391C30.8578 62.9391 30.7688 62.6471 30.6628 62.3221V62.1981L30.6158 62.0911L30.5208 61.866C30.4378 61.712 30.3428 61.5291 30.2428 61.3751C29.8081 60.7817 29.271 60.2706 28.6568 59.866C28.0648 59.434 27.4318 59.0661 26.8158 58.6821C26.1889 58.3222 25.5946 57.9083 25.0398 57.4451C23.9138 56.4356 22.9197 55.2882 22.0808 54.03C21.6368 53.391 21.2048 52.7301 20.8138 52.0411C20.4319 51.3573 20.0861 50.654 19.7778 49.9341C19.1337 48.4855 18.5784 46.999 18.1148 45.483C17.6588 43.983 17.2508 42.4881 16.9308 41.0201C16.6108 39.5521 16.3748 38.102 16.1558 36.741C15.9368 35.38 15.7708 34.0841 15.6878 32.8881C15.6048 31.6921 15.5988 30.58 15.5988 29.603C15.605 28.7576 15.6661 27.9135 15.7818 27.076C15.8708 26.419 15.9708 25.892 16.0478 25.543C16.0639 25.4968 16.076 25.4494 16.0838 25.4011V25.3121C16.1488 25.0461 16.1908 24.8981 16.1908 24.8981L16.1318 25.0461C16.3908 22.8665 16.4957 20.6714 16.4458 18.477C16.3805 17.8312 16.1645 17.2098 15.815 16.6628C15.4655 16.1159 14.9924 15.6586 14.4338 15.3281C12.3161 14.2683 10.5624 12.6013 9.39677 10.54C8.14177 8.01903 7.62076 6.01208 5.74476 4.12408C3.86876 2.23608 2.09276 0.342069 1.71476 0.851069C1.33676 1.36007 1.33577 1.72707 2.85077 3.86907C4.36577 6.01107 7.25077 8.01204 7.50877 9.78704C7.60604 10.618 7.50857 11.4602 7.2241 12.2469C6.93963 13.0337 6.47596 13.7435 5.86976 14.3201C4.82376 15.4821 0.917761 18.63 0.414761 21.524ZM27.2308 67.7241C27.7541 67.7241 28.2657 67.8792 28.7008 68.17C29.1359 68.4607 29.4751 68.874 29.6754 69.3575C29.8756 69.841 29.928 70.373 29.8259 70.8863C29.7238 71.3996 29.4718 71.871 29.1018 72.2411C28.7317 72.6111 28.2602 72.8631 27.747 72.9652C27.2337 73.0673 26.7017 73.0149 26.2182 72.8146C25.7347 72.6144 25.3214 72.2752 25.0307 71.8401C24.74 71.4049 24.5848 70.8934 24.5848 70.37C24.5853 70.0225 24.6543 69.6786 24.7878 69.3577C24.9214 69.0369 25.1168 68.7455 25.363 68.5002C25.6092 68.255 25.9013 68.0606 26.2227 67.9283C26.544 67.796 26.8882 67.7283 27.2358 67.7291L27.2308 67.7241ZM2.17776 30.7101C1.41976 29.9521 1.29577 27.4371 1.29577 27.4371C1.47255 28.1055 1.81908 28.7169 2.30177 29.212C3.16322 30.0229 4.14059 30.701 5.20176 31.2241C4.94876 31.7221 2.93577 31.4571 2.17877 30.7161L2.17776 30.7101ZM15.0448 23.7621C14.6368 27.5021 11.9558 30.7931 7.46377 29.8281C0.479772 28.3281 1.15476 20.4 6.07876 16.985C11.1868 13.475 15.5898 18.7491 15.0448 23.7681V23.7621Z" fill="#D38600"/>
<path d="M27.2308 71.931C27.5388 71.931 27.8399 71.8397 28.0959 71.6686C28.352 71.4975 28.5516 71.2542 28.6694 70.9696C28.7872 70.6851 28.818 70.372 28.7578 70.07C28.6977 69.7679 28.5493 69.4904 28.3315 69.2727C28.1136 69.055 27.8361 68.9068 27.534 68.8468C27.2319 68.7869 26.9188 68.8178 26.6343 68.9358C26.3498 69.0538 26.1067 69.2536 25.9358 69.5098C25.7648 69.766 25.6736 70.067 25.6738 70.375C25.6741 70.7878 25.8383 71.1836 26.1302 71.4754C26.4222 71.7671 26.8181 71.931 27.2308 71.931Z" fill="#D38600"/>
<path d="M36.0416 89.9171C35.1856 87.1751 34.3293 84.4367 33.4726 81.702C32.8806 79.791 31.3066 76.861 31.5256 74.896C30.1711 75.7138 28.6758 76.2717 27.1166 76.541L25.7437 76.665C25.7437 76.665 29.6437 91.5261 33.6747 99.9601C37.7057 108.394 40.5986 114.691 40.5986 114.691C40.5986 114.691 41.7286 115.821 41.9836 114.939C41.284 109.121 40.1135 103.368 38.4836 97.739C37.6456 95.135 36.8316 92.5278 36.0416 89.9171ZM30.4016 87.8511C30.4016 87.8511 30.9107 88.993 32.8167 93.692C34.7227 98.391 39.1666 109.08 39.1666 109.08C35.2076 102.842 30.3776 87.8511 30.3776 87.8511H30.4016Z" fill="#D38600"/>
<path d="M22.1768 72.2511C21.9988 71.8191 21.8218 71.381 21.6378 70.951C21.0458 71.8031 20.0868 73.283 18.8678 75.151C17.8858 76.66 16.7488 78.4301 15.5538 80.3361C14.9618 81.2891 14.3698 82.283 13.7368 83.295C13.1038 84.307 12.5528 85.3601 11.9618 86.4081C11.3708 87.4561 10.8668 88.544 10.3458 89.608C9.82481 90.672 9.32781 91.721 8.84581 92.739C7.91681 94.787 7.04081 96.6931 6.30081 98.3391C4.82081 101.63 3.8688 103.839 3.8688 103.839C3.8688 103.839 4.7628 101.608 6.1528 98.276C6.8528 96.613 7.67381 94.6761 8.57381 92.6061C9.02981 91.5761 9.5028 90.5111 9.9938 89.4281C10.4848 88.3451 10.9998 87.2621 11.5268 86.1791C12.0538 85.0961 12.6098 84.025 13.2078 82.989C13.8058 81.953 14.3918 80.9471 14.9478 79.9711C16.0958 78.0241 17.1848 76.225 18.1318 74.686C19.6318 72.236 20.7598 70.454 21.1558 69.827C20.8658 69.14 20.5638 68.4601 20.2978 67.7791C20.7888 68.9631 17.7828 72.514 17.1788 73.573C15.7168 76.106 14.3378 78.6801 13.0358 81.2671C10.4358 86.3981 8.06981 91.6481 5.79181 96.9331C5.24181 98.2171 0.157803 111.652 2.3708 111.67C3.2998 111.67 3.67881 109.895 3.99281 109.226C4.93981 107.297 6.1178 105.343 7.2008 103.592C9.59214 99.706 11.9418 95.798 14.2498 91.868C16.5288 87.986 18.8778 84.174 21.1088 80.233C22.2448 78.239 23.7898 76.605 23.0148 74.38C22.7441 73.6707 22.4648 72.9611 22.1768 72.2511Z" fill="#D38600"/>
</svg>
